PathFileType	4	(X/Y/Z)	/Users/itak/Documents/Research/Walk-IL/dataset/trc/00318_00011.trc
DataRate	CameraRate	NumFrames	NumMarkers	Units	OrigDataRate	OrigDataStartFrame	OrigNumFrames
100.000000	100.000000	4	53	mm	100.000000	67	542
Frame#	Time	RPSI			LPSI			L3			STRN			T10			C7			CLAV			RBAK			LBAK			LSHO			LUPA			LAEL			LAOL			LWTS			LWPS			LFRA			LHPS			LHTS			RSHO			RUPA			RAEL			RAOL			RWTS			RWPS			RFRA			RIFD			RHTS			RHPS			RBHD			LFHD			RFHD			LBHD			LHIP			RHIP			RASI			LASI			LKNE			LTHI			LANK			LTIP			LTOE			LMT1			LMT5			LHEE			RKNE			RTHI			RANK			RTIP			RTOE			RMT1			RMT5			RHEE			LIFD			
		X1	Y1	Z1	X2	Y2	Z2	X3	Y3	Z3	X4	Y4	Z4	X5	Y5	Z5	X6	Y6	Z6	X7	Y7	Z7	X8	Y8	Z8	X9	Y9	Z9	X10	Y10	Z10	X11	Y11	Z11	X12	Y12	Z12	X13	Y13	Z13	X14	Y14	Z14	X15	Y15	Z15	X16	Y16	Z16	X17	Y17	Z17	X18	Y18	Z18	X19	Y19	Z19	X20	Y20	Z20	X21	Y21	Z21	X22	Y22	Z22	X23	Y23	Z23	X24	Y24	Z24	X25	Y25	Z25	X26	Y26	Z26	X27	Y27	Z27	X28	Y28	Z28	X29	Y29	Z29	X30	Y30	Z30	X31	Y31	Z31	X32	Y32	Z32	X33	Y33	Z33	X34	Y34	Z34	X35	Y35	Z35	X36	Y36	Z36	X37	Y37	Z37	X38	Y38	Z38	X39	Y39	Z39	X40	Y40	Z40	X41	Y41	Z41	X42	Y42	Z42	X43	Y43	Z43	X44	Y44	Z44	X45	Y45	Z45	X46	Y46	Z46	X47	Y47	Z47	X48	Y48	Z48	X49	Y49	Z49	X50	Y50	Z50	X51	Y51	Z51	X52	Y52	Z52	X53	Y53	Z53	

68	0.67	-1508.641235351562	983.7554321289062	13.94681453704834	-1509.679565429688	984.0855712890625	-115.3497543334961	-1514.921020507812	1039.53759765625	-47.72138977050781	-1293.273193359375	1228.770263671875	-62.54314804077148	-1533.104370117188	1159.734252929688	-60.47507858276367	-1501.824951171875	1410.018798828125	-78.90135955810547	-1341.727416992188	1351.374633789062	-68.35271453857422	-1544.654663085938	1269.844970703125	-10.20015144348145	-1507.145629882812	1370.773803710938	-180.2907257080078	-1419.605834960938	1385.822509765625	-233.5919799804688	-1432.6640625	1264.120849609375	-300.010009765625	-1405.122924804688	1060.381225585938	-307.3290710449219	-1465.73046875	1044.370361328125	-250.9479827880859	-1294.600219726562	823.5757446289062	-265.3829650878906	-1338.526123046875	809.06689453125	-318.2001647949219	-1384.854614257812	957.0753173828125	-312.8541564941406	-1336.822509765625	738.3927612304688	-310.3780822753906	-1281.041748046875	744.5880126953125	-280.2202453613281	-1444.930053710938	1396.72998046875	85.82162475585938	-1455.6533203125	1331.894287109375	150.9055633544922	-1432.715576171875	1065.115234375	193.2204742431641	-1470.567749023438	1052.553466796875	106.8213729858398	-1303.742431640625	845.4842529296875	163.0552520751953	-1344.791259765625	829.9718017578125	226.0245208740234	-1404.820068359375	1000.171813964844	205.0959625244141	-1279.2080078125	673.7427978515625	186.1903381347656	-1270.63916015625	749.701416015625	186.3936309814453	-1325.20703125	747.2823486328125	227.2966461181641	-1485.299926757812	1604.29345703125	0.6156635880470276	-1309.69189453125	1640.195922851562	-106.6929626464844	-1326.132446289062	1638.829223632812	-7.557485580444336	-1487.77197265625	1597.8369140625	-143.6451110839844	-1423.240356445312	926.6356811523438	-219.1472778320312	-1428.572631835938	930.0057373046875	123.4539184570312	-1323.368408203125	959.998046875	79.5286865234375	-1302.581909179688	954.295654296875	-159.2890777587891	-1386.620361328125	467.9215087890625	-202.3613128662109	-1380.421997070312	607.0406494140625	-210.7764129638672	-1485.269409179688	49.84480667114258	-184.3782501220703	-1437.233764648438	252.5380554199219	-204.400146484375	-1277.923217773438	46.71597671508789	-132.5509185791016	-1344.910400390625	34.8996467590332	-88.20351409912109	-1359.995361328125	45.74810028076172	-201.9002990722656	-1517.06005859375	44.47471237182617	-116.0099639892578	-1402.86865234375	464.0682067871094	94.96512603759766	-1358.943237304688	720.9754028320312	123.6919174194336	-1472.781127929688	53.70936584472656	61.39203262329102	-1400.268310546875	343.7218627929688	81.91801452636719	-1278.325439453125	47.87993240356445	13.45519351959229	-1333.43505859375	40.09587097167969	-28.90631103515625	-1371.925415039062	42.10897064208984	82.88576507568359	-1523.425170898438	53.00525283813477	13.16122341156006	-1282.45947265625	661.2579345703125	-262.723876953125	
69	0.68	-1508.534057617188	983.7501831054688	13.9166316986084	-1509.583251953125	984.0921630859375	-115.3861846923828	-1514.796997070312	1039.59912109375	-47.70365524291992	-1293.093383789062	1228.748291015625	-62.56216430664062	-1532.98046875	1159.786743164062	-60.53442764282227	-1501.691528320312	1410.08251953125	-78.99424743652344	-1341.643310546875	1351.3056640625	-68.30992126464844	-1544.456909179688	1269.86865234375	-10.27596569061279	-1506.91552734375	1370.790161132812	-180.3315124511719	-1419.334106445312	1385.826904296875	-233.6014862060547	-1432.411499023438	1264.15087890625	-300.0484924316406	-1404.832641601562	1060.411865234375	-307.4225769042969	-1465.525024414062	1044.396484375	-251.0885772705078	-1294.439086914062	823.6106567382812	-265.596923828125	-1338.4638671875	809.0824584960938	-318.4123229980469	-1384.689208984375	957.1127319335938	-313.0177001953125	-1336.727783203125	738.4008178710938	-310.6001586914062	-1280.855102539062	744.599365234375	-280.3541870117188	-1444.784912109375	1396.764404296875	85.77490997314453	-1455.592041015625	1331.919555664062	150.8661346435547	-1432.680297851562	1065.151977539062	193.2165832519531	-1470.530395507812	1052.594604492188	106.8158111572266	-1303.66162109375	845.5026245117188	163.112548828125	-1344.721801757812	830.0022583007812	226.0453186035156	-1404.760375976562	1000.2021484375	205.0911712646484	-1279.070434570312	673.7593383789062	186.2281188964844	-1270.51318359375	749.7421264648438	186.4846496582031	-1325.192504882812	747.2772216796875	227.3144836425781	-1485.02685546875	1604.346801757812	0.6365880370140076	-1309.374877929688	1640.123046875	-106.7235412597656	-1325.96728515625	1638.826904296875	-7.545042991638184	-1487.482666015625	1597.871826171875	-143.653076171875	-1423.119995117188	926.6290283203125	-219.1538696289062	-1428.432983398438	929.9774169921875	123.4630889892578	-1323.322998046875	959.97607421875	79.55857849121094	-1302.516357421875	954.23046875	-159.2790832519531	-1386.528930664062	467.908935546875	-202.3425750732422	-1380.279052734375	607.0202026367188	-210.7433624267578	-1485.265869140625	49.84629440307617	-184.3756408691406	-1437.176147460938	252.5330657958984	-204.3883819580078	-1277.918701171875	46.71647644042969	-132.5486145019531	-1344.917724609375	34.91212463378906	-88.17609405517578	-1360.010131835938	45.74291610717773	-201.8941802978516	-1517.061157226562	44.48472213745117	-116.0055084228516	-1402.810546875	464.0557556152344	94.96952056884766	-1358.873413085938	720.9647216796875	123.6914978027344	-1472.779418945312	53.70792770385742	61.38786315917969	-1400.1650390625	343.7350463867188	81.91315460205078	-1278.301391601562	47.85970687866211	13.45641613006592	-1333.41015625	40.12624740600586	-28.92288970947266	-1371.918334960938	42.1008415222168	82.88277435302734	-1523.389526367188	53.05820465087891	13.14882755279541	-1282.288696289062	661.2672729492188	-262.8550415039062	
70	0.6900000000000001	-1508.424560546875	983.7412719726562	13.87963581085205	-1509.48291015625	984.0961303710938	-115.4218444824219	-1514.69140625	1039.66162109375	-47.68071746826172	-1292.897216796875	1228.72265625	-62.58390808105469	-1532.870361328125	1159.849243164062	-60.58572006225586	-1501.554565429688	1410.144287109375	-79.07662200927734	-1341.564453125	1351.239868164062	-68.26490020751953	-1544.261962890625	1269.881103515625	-10.36799907684326	-1506.69677734375	1370.805786132812	-180.3794403076172	-1419.061645507812	1385.832153320312	-233.6119689941406	-1432.171508789062	1264.181762695312	-300.095947265625	-1404.546875	1060.444091796875	-307.5137329101562	-1465.327026367188	1044.4248046875	-251.2264709472656	-1294.2509765625	823.6508178710938	-265.8443298339844	-1338.380493164062	809.0965576171875	-318.6072082519531	-1384.520629882812	957.1500854492188	-313.1769409179688	-1336.6533203125	738.4080200195312	-310.822021484375	-1280.65869140625	744.631103515625	-280.5104675292969	-1444.645385742188	1396.788818359375	85.72739410400391	-1455.533813476562	1331.943115234375	150.8309936523438	-1432.646362304688	1065.188598632812	193.2151184082031	-1470.494750976562	1052.631225585938	106.8082427978516	-1303.576049804688	845.5216674804688	163.1772613525391	-1344.65966796875	830.0269775390625	226.0709533691406	-1404.70458984375	1000.227722167969	205.0911254882812	-1278.956909179688	673.7713623046875	186.2689056396484	-1270.404418945312	749.7801513671875	186.5733947753906	-1325.183227539062	747.2725830078125	227.3425445556641	-1484.741088867188	1604.382568359375	0.6430948376655579	-1309.067138671875	1640.05078125	-106.7668151855469	-1325.792114257812	1638.820922851562	-7.533641815185547	-1487.18505859375	1597.899658203125	-143.6737670898438	-1422.99462890625	926.6182250976562	-219.1623229980469	-1428.291748046875	929.9524536132812	123.4643859863281	-1323.229614257812	959.9644775390625	79.57268524169922	-1302.439575195312	954.1649780273438	-159.2813568115234	-1386.440307617188	467.8954772949219	-202.3281860351562	-1380.1357421875	606.9988403320312	-210.7122344970703	-1485.26220703125	49.84872817993164	-184.3724365234375	-1437.116333007812	252.5266571044922	-204.3758544921875	-1277.9140625	46.7171516418457	-132.5462799072266	-1344.921630859375	34.9212646484375	-88.15267944335938	-1360.01416015625	45.74272537231445	-201.8902435302734	-1517.061889648438	44.49580764770508	-116.0004043579102	-1402.753295898438	464.0415954589844	94.971435546875	-1358.799682617188	720.9485473632812	123.6900787353516	-1472.777587890625	53.7064094543457	61.38327789306641	-1400.050659179688	343.7502136230469	81.90198516845703	-1278.283935546875	47.8391227722168	13.45820999145508	-1333.38818359375	40.15126419067383	-28.93644332885742	-1371.910522460938	42.09137344360352	82.87872314453125	-1523.349609375	53.10694885253906	13.14160442352295	-1282.108032226562	661.2969360351562	-263.0085754394531	
71	0.7000000000000001	-1508.310791015625	983.7300415039062	13.83738708496094	-1509.376220703125	984.0982666015625	-115.4557800292969	-1514.60205078125	1039.722412109375	-47.65294647216797	-1292.688232421875	1228.692749023438	-62.60803604125977	-1532.771606445312	1159.920043945312	-60.62805557250977	-1501.411254882812	1410.20166015625	-79.14759826660156	-1341.486572265625	1351.1796875	-68.21997833251953	-1544.073120117188	1269.882934570312	-10.47352123260498	-1506.485473632812	1370.821166992188	-180.4335021972656	-1418.790161132812	1385.839599609375	-233.6247100830078	-1431.942749023438	1264.212890625	-300.1513977050781	-1404.277587890625	1060.476806640625	-307.6051330566406	-1465.140625	1044.455322265625	-251.3628234863281	-1294.052124023438	823.6892700195312	-266.114990234375	-1338.280517578125	809.109130859375	-318.7861022949219	-1384.3525390625	957.1861572265625	-313.330810546875	-1336.594360351562	738.4131469726562	-311.0398559570312	-1280.474609375	744.6719360351562	-280.6873168945312	-1444.5107421875	1396.802978515625	85.67954254150391	-1455.473876953125	1331.966430664062	150.8002777099609	-1432.613037109375	1065.224243164062	193.2156066894531	-1470.458374023438	1052.661987304688	106.7969818115234	-1303.490844726562	845.5407104492188	163.2453918457031	-1344.604370117188	830.0458984375	226.1000671386719	-1404.652465820312	1000.248657226562	205.0948486328125	-1278.8671875	673.777099609375	186.3141174316406	-1270.3115234375	749.8177490234375	186.6620788574219	-1325.178344726562	747.269287109375	227.3802795410156	-1484.451049804688	1604.3994140625	0.6300812363624573	-1308.769897460938	1639.977661132812	-106.8186798095703	-1325.601684570312	1638.811401367188	-7.527841091156006	-1486.88330078125	1597.919189453125	-143.7101593017578	-1422.869018554688	926.6044311523438	-219.1756439208984	-1428.15673828125	929.9375	123.4553375244141	-1323.108764648438	959.9555053710938	79.57508850097656	-1302.349975585938	954.1011962890625	-159.2958984375	-1386.354125976562	467.8814697265625	-202.3180694580078	-1379.997924804688	606.9779052734375	-210.6862487792969	-1485.258666992188	49.85210037231445	-184.3686828613281	-1437.0537109375	252.5186004638672	-204.3628082275391	-1277.910522460938	46.71816635131836	-132.5441589355469	-1344.923095703125	34.92742156982422	-88.13300323486328	-1360.007690429688	45.74595260620117	-201.8885498046875	-1517.061157226562	44.50650024414062	-115.9962463378906	-1402.698486328125	464.0241088867188	94.97011566162109	-1358.720703125	720.9256591796875	123.6869735717773	-1472.775634765625	53.70499801635742	61.37906265258789	-1399.932983398438	343.7610168457031	81.8858642578125	-1278.271362304688	47.81750106811523	13.45956325531006	-1333.3740234375	40.16546249389648	-28.94345855712891	-1371.902465820312	42.08138275146484	82.87428283691406	-1523.307495117188	53.1522216796875	13.13699340820312	-1281.939697265625	661.3357543945312	-263.1826477050781	
